<?xml version="1.0" encoding="UTF-8"?>
<!DOCTYPE svg PUBLIC "-//W3C//DTD SVG 1.1//EN" "http://www.w3.org/Graphics/SVG/1.1/DTD/svg11.dtd">
<svg xmlns="http://www.w3.org/2000/svg" version="1.1" width="323px" height="216px" style="shape-rendering:geometricPrecision; text-rendering:geometricPrecision; image-rendering:optimizeQuality; fill-rule:evenodd; clip-rule:evenodd" xmlns:xlink="http://www.w3.org/1999/xlink">
<g><path style="opacity:0.919" fill="#f0f0f0" d="M 172.5,83.5 C 173.708,82.7659 175.041,82.4326 176.5,82.5C 176.389,83.1174 176.056,83.6174 175.5,84C 177.874,86.039 179.874,88.3723 181.5,91C 180.663,92.0113 180.33,93.1779 180.5,94.5C 184.042,94.1872 187.375,94.5206 190.5,95.5C 184.974,95.1786 179.64,95.5119 174.5,96.5C 173.71,97.6085 173.21,98.9419 173,100.5C 172.79,98.9419 172.29,97.6085 171.5,96.5C 170.5,96.5 169.5,96.5 168.5,96.5C 168.5,102.833 168.5,109.167 168.5,115.5C 169.5,115.5 170.5,115.5 171.5,115.5C 172.166,110.983 172.833,106.317 173.5,101.5C 175.747,100.626 178.08,100.292 180.5,100.5C 180.5,105.5 180.5,110.5 180.5,115.5C 182.099,115.768 183.432,115.434 184.5,114.5C 184.5,109.833 184.5,105.167 184.5,100.5C 184.833,100.5 185.167,100.5 185.5,100.5C 185.5,102.167 185.5,103.833 185.5,105.5C 185.5,107.167 185.5,108.833 185.5,110.5C 184.887,114.512 186.554,116.512 190.5,116.5C 193.817,115.779 197.151,115.612 200.5,116C 204.272,117.389 204.272,118.389 200.5,119C 201.416,119.278 202.082,119.778 202.5,120.5C 197.456,120.173 192.456,120.506 187.5,121.5C 186.379,127.114 186.212,132.78 187,138.5C 187.383,139.056 187.883,139.389 188.5,139.5C 192.982,140.326 197.649,140.826 202.5,141C 201.655,142.558 202.321,143.558 204.5,144C 208.516,144.186 212.516,144.186 216.5,144C 218.717,145.268 220.717,146.768 222.5,148.5C 219.294,150.269 215.961,151.769 212.5,153C 204.482,153.771 196.482,154.605 188.5,155.5C 187.07,155.579 185.736,155.246 184.5,154.5C 183.148,155.524 181.815,156.524 180.5,157.5C 179.525,155.487 177.858,154.154 175.5,153.5C 172.259,156.287 168.593,158.287 164.5,159.5C 163.833,159.5 163.167,159.5 162.5,159.5C 165.989,156.863 169.655,154.363 173.5,152C 171.711,151.48 170.044,151.813 168.5,153C 150.626,163.768 132.626,174.268 114.5,184.5C 95.2154,174.524 76.2154,164.024 57.5,153C 56.227,130.574 55.727,108.074 56,85.5C 75,74.1667 94,62.8333 113,51.5C 132.581,62.3734 152.081,73.3734 171.5,84.5C 172.107,84.3764 172.44,84.0431 172.5,83.5 Z"/></g>
<g><path style="opacity:0.007" fill="#f2f2f2" d="M 181.5,80.5 C 181.167,79.1667 180.833,79.1667 180.5,80.5C 179.833,80.5 179.167,80.5 178.5,80.5C 178.611,79.8826 178.944,79.3826 179.5,79C 157.56,66.1131 135.394,53.6131 113,41.5C 91.0473,53.9509 69.214,66.6175 47.5,79.5C 46.3335,105.494 46.1668,131.494 47,157.5C 69.6892,170.591 92.5225,183.257 115.5,195.5C 115.217,196.289 114.717,196.956 114,197.5C 111.457,195.646 108.624,194.479 105.5,194C 86.1242,181.626 66.2909,169.793 46,158.5C 44.8502,145.091 44.3502,131.591 44.5,118C 44.5088,104.79 44.8421,91.6232 45.5,78.5C 67.4252,64.7073 89.7585,51.7073 112.5,39.5C 116.316,40.7142 119.982,42.2142 123.5,44C 142.741,55.1888 162.074,66.1888 181.5,77C 181.736,78.1174 181.736,79.284 181.5,80.5 Z"/></g>
<g><path style="opacity:0.004" fill="#fefffe" d="M 265.5,71.5 C 267.026,72.1047 268.026,73.2714 268.5,75C 266.467,75.8012 264.301,76.3012 262,76.5C 261.114,73.5598 261.948,72.5598 264.5,73.5C 265.298,73.0431 265.631,72.3764 265.5,71.5 Z"/></g>
<g><path style="opacity:0.004" fill="#fefffe" d="M 269.5,73.5 C 271.337,73.6395 271.67,74.3061 270.5,75.5C 269.702,75.0431 269.369,74.3764 269.5,73.5 Z"/></g>
<g><path style="opacity:0.92" fill="#dedede" d="M 176.5,81.5 C 176.5,81.8333 176.5,82.1667 176.5,82.5C 175.041,82.4326 173.708,82.7659 172.5,83.5C 152.835,72.0303 133.001,60.697 113,49.5C 93.3333,61.1667 73.6667,72.8333 54,84.5C 53.6937,107.742 54.1937,130.908 55.5,154C 74.8824,165.358 94.5491,176.191 114.5,186.5C 130.511,177.482 146.511,168.482 162.5,159.5C 163.167,159.5 163.833,159.5 164.5,159.5C 148.127,170.11 131.293,180.11 114,189.5C 93.4351,178.134 72.9351,166.634 52.5,155C 51.1731,130.899 51.1731,106.732 52.5,82.5C 72.5989,70.3957 92.9322,58.7291 113.5,47.5C 132.291,57.7303 150.958,68.2303 169.5,79C 171.65,80.4114 173.984,81.2447 176.5,81.5 Z"/></g>
<g><path style="opacity:0.004" fill="#fefffe" d="M 233.5,82.5 C 236.934,83.251 240.267,84.251 243.5,85.5C 245.204,84.9319 246.704,84.9319 248,85.5C 248.957,83.2908 250.124,83.4575 251.5,86C 256.897,86.2272 262.231,86.8938 267.5,88C 267.957,88.414 268.291,88.914 268.5,89.5C 266.499,91.4866 265.665,93.8199 266,96.5C 266.725,97.0585 267.558,97.3918 268.5,97.5C 270.771,96.5609 272.771,95.2276 274.5,93.5C 275.167,93.6667 275.833,93.8333 276.5,94C 278.667,97.2585 278.667,100.425 276.5,103.5C 276.667,104.167 276.833,104.833 277,105.5C 279.861,101.709 282.861,98.0423 286,94.5C 286.492,93.451 286.326,92.451 285.5,91.5C 287.167,90.1667 288.833,90.1667 290.5,91.5C 289.5,92.8333 288.5,94.1667 287.5,95.5C 289.031,96.6131 290.031,98.1131 290.5,100C 290.333,100.833 290.167,101.667 290,102.5C 286.333,105.5 282.667,108.5 279,111.5C 278.667,112.833 278.333,114.167 278,115.5C 277.517,114.552 277.351,113.552 277.5,112.5C 274.398,112.846 271.565,112.179 269,110.5C 268.333,109.833 268.333,109.167 269,108.5C 270.255,107.789 271.421,106.956 272.5,106C 269.711,104.336 266.877,104.17 264,105.5C 262.174,103.821 260.008,102.654 257.5,102C 252.978,101.951 248.644,101.118 244.5,99.5C 242.742,100.128 241.242,101.128 240,102.5C 239.586,102.043 239.086,101.709 238.5,101.5C 229.339,110.714 227.006,109.048 231.5,96.5C 230.594,94.2525 229.261,92.2525 227.5,90.5C 230.101,88.2233 232.101,85.5566 233.5,82.5 Z"/></g>
<g><path style="opacity:0.004" fill="#fefffe" d="M 315.5,82.5 C 318.26,84.396 319.094,87.0626 318,90.5C 317.326,87.74 316.493,85.0733 315.5,82.5 Z"/></g>
<g><path style="opacity:0.004" fill="#fefffe" d="M 216.5,87.5 C 218.97,88.3603 219.137,89.6936 217,91.5C 215.489,90.436 215.323,89.1026 216.5,87.5 Z"/></g>
<g><path style="opacity:0.004" fill="#fefffe" d="M 316.5,91.5 C 317.725,92.1522 318.392,93.3189 318.5,95C 318.167,96.1667 317.833,97.3333 317.5,98.5C 316.289,97.7261 316.289,96.8928 317.5,96C 313.936,95.2725 313.602,93.7725 316.5,91.5 Z"/></g>
<g><path style="opacity:0.011" fill="#fcfcfc" d="M 178.5,80.5 C 179.167,80.5 179.833,80.5 180.5,80.5C 180.833,80.5 181.167,80.5 181.5,80.5C 180.942,81.7899 179.942,82.6232 178.5,83C 180.087,83.8624 181.754,84.5291 183.5,85C 193.714,87.4668 204.047,89.1335 214.5,90C 209.817,90.8345 205.15,91.6679 200.5,92.5C 198.5,91.8333 196.5,91.1667 194.5,90.5C 191.921,96.3929 193.254,101.393 198.5,105.5C 199.251,104.624 199.751,103.624 200,102.5C 200.333,102.833 200.667,103.167 201,103.5C 201.333,100.833 201.667,98.1667 202,95.5C 206.023,92.8399 209.023,93.8399 211,98.5C 213.167,97 215.333,95.5 217.5,94C 218.899,93.4054 220.232,93.5721 221.5,94.5C 222.819,101.656 222.819,108.656 221.5,115.5C 221.823,108.978 221.49,102.645 220.5,96.5C 219.448,96.3505 218.448,96.5172 217.5,97C 214.696,100.145 212.03,103.312 209.5,106.5C 208.518,103.038 208.185,99.3714 208.5,95.5C 206.219,95.0773 204.552,95.744 203.5,97.5C 202.673,102.651 202.173,107.984 202,113.5C 197.961,114.056 194.128,115.056 190.5,116.5C 186.554,116.512 184.887,114.512 185.5,110.5C 187.296,112.93 188.963,112.93 190.5,110.5C 189.167,108.167 189.167,105.833 190.5,103.5C 190.167,103.167 189.833,102.833 189.5,102.5C 187.84,103.172 186.507,104.172 185.5,105.5C 185.5,103.833 185.5,102.167 185.5,100.5C 187.5,100.5 189.5,100.5 191.5,100.5C 191.784,98.5853 191.451,96.9187 190.5,95.5C 187.375,94.5206 184.042,94.1872 180.5,94.5C 180.33,93.1779 180.663,92.0113 181.5,91C 179.874,88.3723 177.874,86.039 175.5,84C 176.056,83.6174 176.389,83.1174 176.5,82.5C 176.5,82.1667 176.5,81.8333 176.5,81.5C 177.167,81.1667 177.833,80.8333 178.5,80.5 Z"/></g>
<g><path style="opacity:0.455" fill="#bcbcbc" d="M 174.5,96.5 C 179.64,95.5119 184.974,95.1786 190.5,95.5C 191.451,96.9187 191.784,98.5853 191.5,100.5C 189.5,100.5 187.5,100.5 185.5,100.5C 185.167,100.5 184.833,100.5 184.5,100.5C 186.265,99.5386 188.265,99.2053 190.5,99.5C 190.5,98.5 190.5,97.5 190.5,96.5C 185.167,96.5 179.833,96.5 174.5,96.5 Z"/></g>
<g><path style="opacity:0.961" fill="#565656" d="M 171.5,96.5 C 171.5,102.833 171.5,109.167 171.5,115.5C 170.5,115.5 169.5,115.5 168.5,115.5C 168.5,109.167 168.5,102.833 168.5,96.5C 169.5,96.5 170.5,96.5 171.5,96.5 Z"/></g>
<g><path style="opacity:0.472" fill="#b5b5b5" d="M 171.5,96.5 C 172.29,97.6085 172.79,98.9419 173,100.5C 173.21,98.9419 173.71,97.6085 174.5,96.5C 174.5,97.5 174.5,98.5 174.5,99.5C 176.735,99.2053 178.735,99.5386 180.5,100.5C 178.08,100.292 175.747,100.626 173.5,101.5C 172.833,106.317 172.166,110.983 171.5,115.5C 171.5,109.167 171.5,102.833 171.5,96.5 Z"/></g>
<g><path style="opacity:0.971" fill="#555555" d="M 174.5,96.5 C 179.833,96.5 185.167,96.5 190.5,96.5C 190.5,97.5 190.5,98.5 190.5,99.5C 188.265,99.2053 186.265,99.5386 184.5,100.5C 184.5,105.167 184.5,109.833 184.5,114.5C 183.5,114.5 182.5,114.5 181.5,114.5C 181.819,109.637 181.486,104.97 180.5,100.5C 178.735,99.5386 176.735,99.2053 174.5,99.5C 174.5,98.5 174.5,97.5 174.5,96.5 Z"/></g>
<g><path style="opacity:0.971" fill="#575757" d="M 209.5,106.5 C 212.03,103.312 214.696,100.145 217.5,97C 218.448,96.5172 219.448,96.3505 220.5,96.5C 220.5,102.5 220.5,108.5 220.5,114.5C 219.5,114.5 218.5,114.5 217.5,114.5C 217.665,110.818 217.499,107.152 217,103.5C 214.59,106.397 212.423,109.397 210.5,112.5C 209.5,112.833 208.833,113.5 208.5,114.5C 207.167,114.5 205.833,114.5 204.5,114.5C 204.5,108.5 204.5,102.5 204.5,96.5C 205.5,96.5 206.5,96.5 207.5,96.5C 207.334,100.514 207.501,104.514 208,108.5C 208.717,107.956 209.217,107.289 209.5,106.5 Z"/></g>
<g><path style="opacity:0.843" fill="#7b7b7b" d="M 180.5,100.5 C 181.486,104.97 181.819,109.637 181.5,114.5C 182.5,114.5 183.5,114.5 184.5,114.5C 183.432,115.434 182.099,115.768 180.5,115.5C 180.5,110.5 180.5,105.5 180.5,100.5 Z"/></g>
<g><path style="opacity:0.004" fill="#fefffe" d="M 302.5,102.5 C 303.573,103.251 303.74,104.251 303,105.5C 302.517,104.552 302.351,103.552 302.5,102.5 Z"/></g>
<g><path style="opacity:0.004" fill="#fefffe" d="M 294.5,103.5 C 295.695,103.866 296.361,104.699 296.5,106C 295.5,107.5 294.5,109 293.5,110.5C 289.682,110.79 288.848,109.124 291,105.5C 292.302,104.915 293.469,104.249 294.5,103.5 Z"/></g>
<g><path style="opacity:0.376" fill="#7f7e7e" d="M 220.5,96.5 C 221.49,102.645 221.823,108.978 221.5,115.5C 219.901,115.768 218.568,115.434 217.5,114.5C 218.5,114.5 219.5,114.5 220.5,114.5C 220.5,108.5 220.5,102.5 220.5,96.5 Z"/></g>
<g><path style="opacity:0.007" fill="#fdfdfd" d="M 217.5,114.5 C 218.568,115.434 219.901,115.768 221.5,115.5C 220.942,116.79 219.942,117.623 218.5,118C 221.685,119.212 225.018,119.546 228.5,119C 229.056,119.383 229.389,119.883 229.5,120.5C 230.302,121.952 230.802,123.618 231,125.5C 231.333,124.833 231.667,124.167 232,123.5C 232.741,124.641 233.575,124.641 234.5,123.5C 237,118.291 240.667,117.291 245.5,120.5C 249.482,119.741 253.482,119.074 257.5,118.5C 259.557,118.436 261.223,119.102 262.5,120.5C 262.167,120.5 261.833,120.5 261.5,120.5C 247.859,119.481 242.192,125.814 244.5,139.5C 245.833,139.5 247.167,139.5 248.5,139.5C 248.5,137.833 248.5,136.167 248.5,134.5C 251.5,134.5 254.5,134.5 257.5,134.5C 257.216,136.415 257.549,138.081 258.5,139.5C 259.568,140.434 260.901,140.768 262.5,140.5C 261.84,145.328 263.84,147.161 268.5,146C 273.726,143.099 277.893,139.266 281,134.5C 284.034,135.601 286.867,137.101 289.5,139C 291.441,139.743 293.274,139.576 295,138.5C 295.903,139.701 297.069,140.535 298.5,141C 296.779,141.739 295.113,142.573 293.5,143.5C 297.628,146.263 301.795,146.597 306,144.5C 307.856,146.737 307.356,148.571 304.5,150C 307.305,152.687 306.971,153.687 303.5,153C 301.392,149.706 299.726,150.039 298.5,154C 299.627,155.057 300.127,156.223 300,157.5C 298.59,158.787 297.09,159.954 295.5,161C 299.401,163.293 299.234,165.46 295,167.5C 294.759,172.705 294.259,177.872 293.5,183C 294.783,184.136 295.783,185.469 296.5,187C 295.38,188.737 294.38,190.571 293.5,192.5C 293.808,193.308 294.308,193.975 295,194.5C 297.621,193.689 299.955,192.355 302,190.5C 301.595,186.879 301.595,183.213 302,179.5C 303.353,178.315 304.52,176.981 305.5,175.5C 303.364,174.528 302.197,172.861 302,170.5C 301,171.167 300,171.833 299,172.5C 299.534,169.403 299.867,166.403 300,163.5C 300.333,163.833 300.667,164.167 301,164.5C 302.401,162.808 304.234,162.141 306.5,162.5C 305.23,167.112 305.23,171.112 306.5,174.5C 308.167,175.667 309.833,176.833 311.5,178C 308.223,180.745 307.89,183.745 310.5,187C 308.765,190.467 306.765,193.8 304.5,197C 299.848,196.691 296.015,198.191 293,201.5C 289.75,200.524 286.583,199.69 283.5,199C 280.133,202.356 276.966,205.856 274,209.5C 273.333,208.833 273.333,208.167 274,207.5C 275.353,206.315 276.52,204.981 277.5,203.5C 274.324,202.738 271.158,203.071 268,204.5C 267.228,204.355 266.561,204.022 266,203.5C 264.406,204.716 262.906,206.049 261.5,207.5C 261.08,205.647 260.747,203.813 260.5,202C 262.059,201.02 263.726,200.187 265.5,199.5C 264.127,197.51 263.127,195.343 262.5,193C 259.828,192.166 257.161,191.332 254.5,190.5C 253.766,187.334 252.6,184.334 251,181.5C 249.095,184.971 246.928,188.304 244.5,191.5C 245.776,193.861 245.442,196.028 243.5,198C 245.766,200.755 248.766,202.088 252.5,202C 255.118,203.974 254.952,205.807 252,207.5C 249.12,205.157 246.287,205.324 243.5,208C 245.788,208.822 248.122,209.489 250.5,210C 249.328,210.419 248.328,211.085 247.5,212C 249.596,212.737 251.263,213.903 252.5,215.5C 235.5,215.5 218.5,215.5 201.5,215.5C 202.942,214.18 203.608,212.514 203.5,210.5C 201.167,210.5 198.833,210.5 196.5,210.5C 196.238,209.022 196.571,207.689 197.5,206.5C 199.002,205.917 200.335,205.084 201.5,204C 196.777,200.017 193.611,200.851 192,206.5C 189.991,209.258 187.991,209.592 186,207.5C 185.333,205.5 185.333,203.5 186,201.5C 189.505,199.74 190.005,197.573 187.5,195C 188.167,194.333 188.833,193.667 189.5,193C 193.206,193.524 196.873,193.358 200.5,192.5C 200.586,190.323 201.253,188.323 202.5,186.5C 202.332,183.225 200.999,180.225 198.5,177.5C 197.12,178.706 195.953,178.373 195,176.5C 192.717,172.299 191.717,167.966 192,163.5C 189.533,161.198 186.7,159.531 183.5,158.5C 164.407,168.548 145.74,179.382 127.5,191C 123.827,193.335 119.827,194.835 115.5,195.5C 136.666,182.08 158.333,169.413 180.5,157.5C 181.815,156.524 183.148,155.524 184.5,154.5C 185.736,155.246 187.07,155.579 188.5,155.5C 194.593,156.052 200.593,156.385 206.5,156.5C 211.493,155.251 216.326,153.585 221,151.5C 221.906,154.454 223.073,157.287 224.5,160C 230.077,161.885 235.244,161.052 240,157.5C 240.667,156.5 240.667,155.5 240,154.5C 233.687,151.576 227.52,148.576 221.5,145.5C 221.167,145.167 220.833,144.833 220.5,144.5C 222.005,143.158 222.672,141.492 222.5,139.5C 222.5,133.167 222.5,126.833 222.5,120.5C 221.167,120.5 219.833,120.5 218.5,120.5C 218.5,122.833 218.5,125.167 218.5,127.5C 215.833,127.5 213.167,127.5 210.5,127.5C 211.202,122.097 211.202,117.097 210.5,112.5C 212.423,109.397 214.59,106.397 217,103.5C 217.499,107.152 217.665,110.818 217.5,114.5 Z M 249.5,135.5 C 250.103,137.19 251.103,138.69 252.5,140C 251.663,141.011 251.33,142.178 251.5,143.5C 250.022,143.762 248.689,143.429 247.5,142.5C 249.173,140.477 249.84,138.144 249.5,135.5 Z M 198.5,177.5 C 198.569,174.916 199.735,172.916 202,171.5C 203.111,174.955 201.944,176.955 198.5,177.5 Z M 253.5,177.5 C 252.859,176.518 252.193,175.518 251.5,174.5C 253.107,173.3 254.107,173.8 254.5,176C 254.43,176.765 254.097,177.265 253.5,177.5 Z M 241.5,175.5 C 245.157,175.974 245.324,177.307 242,179.5C 241.51,178.207 241.343,176.873 241.5,175.5 Z M 286.5,175.5 C 285.2,176.601 284.7,177.934 285,179.5C 287.398,180.856 289.898,182.023 292.5,183C 291.449,184.385 290.116,185.385 288.5,186C 280.833,186.998 274.499,190.332 269.5,196C 268.552,196.483 267.552,196.649 266.5,196.5C 268.202,192.398 270.202,188.398 272.5,184.5C 272,184.167 271.5,183.833 271,183.5C 266.675,187.833 265.008,186.833 266,180.5C 272.543,177.822 279.377,176.155 286.5,175.5 Z M 260.5,183.5 C 261.552,183.351 262.552,183.517 263.5,184C 260.202,188.589 259.202,188.422 260.5,183.5 Z M 204.5,189.5 C 205.946,188.387 207.613,188.22 209.5,189C 208.953,189.925 208.287,190.758 207.5,191.5C 206.735,190.388 205.735,189.721 204.5,189.5 Z"/></g>
<g><path style="opacity:0.004" fill="#fefffe" d="M 302.5,107.5 C 304.337,107.639 304.67,108.306 303.5,109.5C 302.702,109.043 302.369,108.376 302.5,107.5 Z"/></g>
<g><path style="opacity:0.548" fill="#aeaeae" d="M 209.5,106.5 C 209.217,107.289 208.717,107.956 208,108.5C 207.501,104.514 207.334,100.514 207.5,96.5C 206.5,96.5 205.5,96.5 204.5,96.5C 204.5,102.5 204.5,108.5 204.5,114.5C 205.833,114.5 207.167,114.5 208.5,114.5C 207.081,115.451 205.415,115.784 203.5,115.5C 203.5,109.5 203.5,103.5 203.5,97.5C 204.552,95.744 206.219,95.0773 208.5,95.5C 208.185,99.3714 208.518,103.038 209.5,106.5 Z"/></g>
<g><path style="opacity:0.004" fill="#fefffe" d="M 284.5,112.5 C 285.573,113.251 285.74,114.251 285,115.5C 284.517,114.552 284.351,113.552 284.5,112.5 Z"/></g>
<g><path style="opacity:0.995" fill="#606060" d="M 118.5,89.5 C 124.828,89.337 125.995,91.6703 122,96.5C 120.78,101.476 120.113,106.476 120,111.5C 121.741,108.795 123.241,105.962 124.5,103C 130.007,102.486 131.341,104.486 128.5,109C 125.085,109.406 122.418,111.072 120.5,114C 125.374,115.04 129.04,113.374 131.5,109C 137.502,108.007 139.668,110.507 138,116.5C 136.687,117.573 135.187,118.24 133.5,118.5C 131.5,117.5 129.5,116.5 127.5,115.5C 125.547,116.156 123.547,116.489 121.5,116.5C 121.5,117.5 121.5,118.5 121.5,119.5C 123.884,119.557 126.218,119.223 128.5,118.5C 131.975,119.143 133.141,121.143 132,124.5C 128.438,126.187 125.605,125.354 123.5,122C 122.365,121.251 121.365,121.417 120.5,122.5C 121.648,124.149 122.981,125.649 124.5,127C 129.823,127.021 132.323,129.521 132,134.5C 130.18,137.203 127.68,138.036 124.5,137C 123.106,136.044 122.439,134.711 122.5,133C 123.475,128.726 121.809,125.56 117.5,123.5C 116.516,126.428 116.183,129.428 116.5,132.5C 120.976,132.822 122.476,135.156 121,139.5C 118,143.5 115,143.5 112,139.5C 111.031,136.672 111.697,134.338 114,132.5C 115.043,129.014 114.376,126.014 112,123.5C 106.301,128.182 101.801,133.682 98.5,140C 93.8996,141.583 92.0663,140.083 93,135.5C 94.4907,133.996 96.324,133.163 98.5,133C 102.233,129.267 105.9,125.6 109.5,122C 109.355,121.228 109.022,120.561 108.5,120C 105.773,119.182 103.106,119.348 100.5,120.5C 96.5636,126.015 93.2302,125.681 90.5,119.5C 91.2656,114.85 93.9322,113.35 98.5,115C 101.428,117.618 104.761,118.118 108.5,116.5C 109.713,114.149 109.047,112.316 106.5,111C 103.564,109.955 100.564,109.121 97.5,108.5C 94.8333,105.833 94.8333,103.167 97.5,100.5C 103.519,99.3421 106.352,102.009 106,108.5C 112.126,114.062 113.793,112.729 111,104.5C 104.999,102.006 104.166,98.5062 108.5,94C 110.92,93.3131 113.087,93.8131 115,95.5C 115.685,99.0556 115.185,102.389 113.5,105.5C 113.84,107.512 114.173,109.512 114.5,111.5C 115.5,111.5 116.5,111.5 117.5,111.5C 117.569,106.586 118.236,101.752 119.5,97C 117.353,94.7304 117.019,92.2304 118.5,89.5 Z"/></g>
<g><path style="opacity:0.004" fill="#fefffe" d="M 278.5,118.5 C 279.833,119.167 279.833,119.167 278.5,118.5 Z"/></g>
<g><path style="opacity:0.963" fill="#5b5b5b" d="M 167.5,120.5 C 173.167,120.5 178.833,120.5 184.5,120.5C 184.5,121.833 184.5,123.167 184.5,124.5C 182.167,124.5 179.833,124.5 177.5,124.5C 177.5,129.5 177.5,134.5 177.5,139.5C 176.5,139.5 175.5,139.5 174.5,139.5C 174.5,134.5 174.5,129.5 174.5,124.5C 172.167,124.5 169.833,124.5 167.5,124.5C 167.5,123.167 167.5,121.833 167.5,120.5 Z"/></g>
<g><path style="opacity:0.938" fill="#606060" d="M 202.5,120.5 C 203.579,126.449 203.746,132.449 203,138.5C 198.263,139.469 193.43,139.803 188.5,139.5C 187.883,139.389 187.383,139.056 187,138.5C 186.212,132.78 186.379,127.114 187.5,121.5C 192.456,120.506 197.456,120.173 202.5,120.5 Z"/></g>
<g><path style="opacity:0.962" fill="#595959" d="M 218.5,127.5 C 218.5,125.167 218.5,122.833 218.5,120.5C 219.833,120.5 221.167,120.5 222.5,120.5C 222.5,126.833 222.5,133.167 222.5,139.5C 221.5,139.5 220.5,139.5 219.5,139.5C 219.5,136.833 219.5,134.167 219.5,131.5C 215.5,131.5 211.5,131.5 207.5,131.5C 207.5,130.833 207.167,130.5 206.5,130.5C 206.5,127.167 206.5,123.833 206.5,120.5C 207.5,120.5 208.5,120.5 209.5,120.5C 209.5,123.167 209.5,125.833 209.5,128.5C 212.713,128.81 215.713,128.477 218.5,127.5 Z"/></g>
<g><path style="opacity:0.919" fill="#5a5a5a" d="M 228.5,120.5 C 228.5,123.167 228.5,125.833 228.5,128.5C 231.059,128.802 233.393,128.468 235.5,127.5C 238.091,126.009 239.091,123.675 238.5,120.5C 239.833,120.5 241.167,120.5 242.5,120.5C 243.295,124.594 241.962,127.761 238.5,130C 241.962,132.239 243.295,135.406 242.5,139.5C 241.167,139.5 239.833,139.5 238.5,139.5C 238.851,136.188 237.518,133.855 234.5,132.5C 232.735,131.539 230.735,131.205 228.5,131.5C 228.5,134.167 228.5,136.833 228.5,139.5C 227.5,139.5 226.5,139.5 225.5,139.5C 225.5,133.167 225.5,126.833 225.5,120.5C 226.5,120.5 227.5,120.5 228.5,120.5 Z"/></g>
<g><path style="opacity:0.203" fill="#b5b5b5" d="M 228.5,120.5 C 228.833,120.5 229.167,120.5 229.5,120.5C 229.5,122.833 229.5,125.167 229.5,127.5C 231.5,127.5 233.5,127.5 235.5,127.5C 233.393,128.468 231.059,128.802 228.5,128.5C 228.5,125.833 228.5,123.167 228.5,120.5 Z"/></g>
<g><path style="opacity:0.794" fill="#5a5a5a" d="M 261.5,120.5 C 261.5,126.833 261.5,133.167 261.5,139.5C 260.5,139.5 259.5,139.5 258.5,139.5C 258.5,137.5 258.5,135.5 258.5,133.5C 254.958,133.187 251.625,133.521 248.5,134.5C 248.5,136.167 248.5,137.833 248.5,139.5C 247.167,139.5 245.833,139.5 244.5,139.5C 242.192,125.814 247.859,119.481 261.5,120.5 Z"/></g>
<g><path style="opacity:0.012" fill="#f9f9f9" d="M 190.5,124.5 C 193.5,124.5 196.5,124.5 199.5,124.5C 199.5,128.167 199.5,131.833 199.5,135.5C 196.5,135.5 193.5,135.5 190.5,135.5C 190.5,131.833 190.5,128.167 190.5,124.5 Z"/></g>
<g><path style="opacity:0.007" fill="#f6f6f6" d="M 257.5,124.5 C 257.5,126.167 257.5,127.833 257.5,129.5C 254.302,130.036 251.635,129.369 249.5,127.5C 251.391,124.828 254.058,123.828 257.5,124.5 Z"/></g>
<g><path style="opacity:0.031" fill="#c0c0c0" d="M 261.5,120.5 C 261.833,120.5 262.167,120.5 262.5,120.5C 262.568,126.858 262.568,133.525 262.5,140.5C 260.901,140.768 259.568,140.434 258.5,139.5C 259.5,139.5 260.5,139.5 261.5,139.5C 261.5,133.167 261.5,126.833 261.5,120.5 Z"/></g>
<g><path style="opacity:0.018" fill="#fefefe" d="M 206.5,130.5 C 207.167,130.5 207.5,130.833 207.5,131.5C 210.625,132.479 213.958,132.813 217.5,132.5C 217.5,135.5 217.5,138.5 217.5,141.5C 212.802,141.71 208.136,141.876 203.5,142C 204.305,137.251 204.805,132.418 205,127.5C 205.232,128.737 205.732,129.737 206.5,130.5 Z"/></g>
<g><path style="opacity:0.118" fill="#c0c0c0" d="M 257.5,124.5 C 258.461,126.265 258.795,128.265 258.5,130.5C 255.167,130.5 251.833,130.5 248.5,130.5C 248.263,129.209 248.596,128.209 249.5,127.5C 251.635,129.369 254.302,130.036 257.5,129.5C 257.5,127.833 257.5,126.167 257.5,124.5 Z"/></g>
<g><path style="opacity:0.714" fill="#818181" d="M 207.5,131.5 C 211.5,131.5 215.5,131.5 219.5,131.5C 219.5,134.167 219.5,136.833 219.5,139.5C 218.833,137.167 218.167,134.833 217.5,132.5C 213.958,132.813 210.625,132.479 207.5,131.5 Z"/></g>
<g><path style="opacity:0.307" fill="#afafae" d="M 234.5,132.5 C 232.833,132.5 231.167,132.5 229.5,132.5C 229.5,135.167 229.5,137.833 229.5,140.5C 227.901,140.768 226.568,140.434 225.5,139.5C 226.5,139.5 227.5,139.5 228.5,139.5C 228.5,136.833 228.5,134.167 228.5,131.5C 230.735,131.205 232.735,131.539 234.5,132.5 Z"/></g>
<g><path style="opacity:0.247" fill="#a0a0a0" d="M 248.5,134.5 C 251.625,133.521 254.958,133.187 258.5,133.5C 258.5,135.5 258.5,137.5 258.5,139.5C 257.549,138.081 257.216,136.415 257.5,134.5C 254.5,134.5 251.5,134.5 248.5,134.5 Z"/></g>
<g><path style="opacity:0.004" fill="#fefffe" d="M 297.5,136.5 C 298.675,136.281 299.675,136.614 300.5,137.5C 298.948,138.798 297.948,138.465 297.5,136.5 Z"/></g>
<g><path style="opacity:0.048" fill="#e8e8e8" d="M 203.5,97.5 C 203.5,103.5 203.5,109.5 203.5,115.5C 205.415,115.784 207.081,115.451 208.5,114.5C 208.833,113.5 209.5,112.833 210.5,112.5C 211.202,117.097 211.202,122.097 210.5,127.5C 213.167,127.5 215.833,127.5 218.5,127.5C 215.713,128.477 212.713,128.81 209.5,128.5C 209.5,125.833 209.5,123.167 209.5,120.5C 208.5,120.5 207.5,120.5 206.5,120.5C 206.5,123.833 206.5,127.167 206.5,130.5C 205.732,129.737 205.232,128.737 205,127.5C 204.805,132.418 204.305,137.251 203.5,142C 208.136,141.876 212.802,141.71 217.5,141.5C 217.5,138.5 217.5,135.5 217.5,132.5C 218.167,134.833 218.833,137.167 219.5,139.5C 220.5,139.5 221.5,139.5 222.5,139.5C 222.672,141.492 222.005,143.158 220.5,144.5C 220.833,144.833 221.167,145.167 221.5,145.5C 227.52,148.576 233.687,151.576 240,154.5C 240.667,155.5 240.667,156.5 240,157.5C 235.244,161.052 230.077,161.885 224.5,160C 223.073,157.287 221.906,154.454 221,151.5C 216.326,153.585 211.493,155.251 206.5,156.5C 200.593,156.385 194.593,156.052 188.5,155.5C 196.482,154.605 204.482,153.771 212.5,153C 215.961,151.769 219.294,150.269 222.5,148.5C 220.717,146.768 218.717,145.268 216.5,144C 212.516,144.186 208.516,144.186 204.5,144C 202.321,143.558 201.655,142.558 202.5,141C 197.649,140.826 192.982,140.326 188.5,139.5C 193.43,139.803 198.263,139.469 203,138.5C 203.746,132.449 203.579,126.449 202.5,120.5C 202.082,119.778 201.416,119.278 200.5,119C 204.272,118.389 204.272,117.389 200.5,116C 197.151,115.612 193.817,115.779 190.5,116.5C 194.128,115.056 197.961,114.056 202,113.5C 202.173,107.984 202.673,102.651 203.5,97.5 Z"/></g>
<g><path style="opacity:0.922" fill="#5b5b5b" d="M 178.5,80.5 C 177.833,80.8333 177.167,81.1667 176.5,81.5C 173.984,81.2447 171.65,80.4114 169.5,79C 150.958,68.2303 132.291,57.7303 113.5,47.5C 92.9322,58.7291 72.5989,70.3957 52.5,82.5C 51.1731,106.732 51.1731,130.899 52.5,155C 72.9351,166.634 93.4351,178.134 114,189.5C 131.293,180.11 148.127,170.11 164.5,159.5C 168.593,158.287 172.259,156.287 175.5,153.5C 177.858,154.154 179.525,155.487 180.5,157.5C 158.333,169.413 136.666,182.08 115.5,195.5C 92.5225,183.257 69.6892,170.591 47,157.5C 46.1668,131.494 46.3335,105.494 47.5,79.5C 69.214,66.6175 91.0473,53.9509 113,41.5C 135.394,53.6131 157.56,66.1131 179.5,79C 178.944,79.3826 178.611,79.8826 178.5,80.5 Z"/></g>
<g><path style="opacity:0.992" fill="#6b6b6b" d="M 172.5,83.5 C 172.44,84.0431 172.107,84.3764 171.5,84.5C 152.081,73.3734 132.581,62.3734 113,51.5C 94,62.8333 75,74.1667 56,85.5C 55.727,108.074 56.227,130.574 57.5,153C 76.2154,164.024 95.2154,174.524 114.5,184.5C 132.626,174.268 150.626,163.768 168.5,153C 170.044,151.813 171.711,151.48 173.5,152C 169.655,154.363 165.989,156.863 162.5,159.5C 146.511,168.482 130.511,177.482 114.5,186.5C 94.5491,176.191 74.8824,165.358 55.5,154C 54.1937,130.908 53.6937,107.742 54,84.5C 73.6667,72.8333 93.3333,61.1667 113,49.5C 133.001,60.697 152.835,72.0303 172.5,83.5 Z"/></g>
<g><path style="opacity:0.004" fill="#fefffe" d="M 303.5,201.5 C 303.897,200.475 304.563,200.308 305.5,201C 304.906,201.464 304.239,201.631 303.5,201.5 Z"/></g>
<g><path style="opacity:0.004" fill="#fefffe" d="M 251.5,208.5 C 252.833,209.167 252.833,209.167 251.5,208.5 Z"/></g>
</svg>
